<svg width="133" height="40" viewBox="0 0 133 40" fill="none" xmlns="http://www.w3.org/2000/svg">
<rect width="9.43452" height="24.606" rx="4.71726" transform="matrix(-0.956009 -0.293336 -0.293336 0.956009 46.291 2.76747)" fill="url(#paint0_linear_2001_1172)"/>
<rect y="2.87106" width="9.48378" height="38.669" rx="4.74189" transform="rotate(-17.0578 0 2.87106)" fill="#272727" fill-opacity="0.6"/>
<rect width="9.48378" height="24.6771" rx="4.74189" transform="matrix(-0.956009 -0.293336 -0.293336 0.956009 42.2778 15.7669)" fill="#272727"/>
<rect width="9.43452" height="24.6771" rx="4.71726" transform="matrix(-0.956009 -0.293336 -0.293336 0.956009 42.2305 15.7524)" fill="#272727"/>
<rect width="9.43452" height="9.38061" rx="4.69031" transform="matrix(-0.956009 -0.293336 -0.293336 0.956009 46.291 2.76747)" fill="#272727"/>
<g filter="url(#filter0_d_2001_1172)">
<path d="M31.6888 17.8142C32.4843 19.6997 33.7714 21.2552 35.5218 22.2556C36.8676 23.0247 38.3574 23.3902 39.8959 23.3953L36.2396 35.3142C35.4714 37.8176 32.8193 39.2247 30.3158 38.4568C27.8121 37.6886 26.405 35.0357 27.1732 32.532L31.6888 17.8142Z" fill="#272727"/>
</g>
<path d="M31.7417 17.8216C32.5388 19.707 33.8286 21.2626 35.5825 22.263C36.931 23.032 38.4239 23.3975 39.9654 23.4027L36.3042 35.3138C35.5331 37.8215 32.8744 39.2313 30.3658 38.4632C27.857 37.695 26.4482 35.0395 27.2193 32.5316L31.7417 17.8216Z" fill="#272727"/>
<rect width="9.75723" height="38.7126" rx="4.87862" transform="matrix(0.956009 0.293336 0.293336 -0.956009 8.57861 37.0759)" fill="#272727"/>
<rect x="37.7236" y="37.0632" width="9.75723" height="38.6208" rx="4.87862" transform="rotate(162.942 37.7236 37.0632)" fill="#272727"/>
<path d="M81.3338 12.9465L74.1733 34.4689H70.368L65.0488 17.6111H64.926L59.6068 34.4689H55.9652L48.8047 12.9465H52.5691L57.8474 30.2545H57.9701L63.1666 12.9465H67.0947L72.2911 30.2545H72.4139L77.6922 12.9465H81.3338ZM95.2215 27.9222L98.6995 28.3723C97.6766 31.482 95.0169 35.0009 89.0021 35.0009C83.151 35.0009 79.1411 30.5409 79.1411 23.7487C79.1411 16.9155 83.0691 12.4555 89.0021 12.4555C94.976 12.4555 99.2723 16.9564 98.8632 24.567H82.619C82.7418 28.986 85.2377 32.1367 89.0021 32.1367C92.8892 32.1367 94.6078 29.7635 95.2215 27.9222ZM89.0021 15.3197C85.1968 15.3197 82.9873 18.3476 82.66 21.8665H95.3443C95.0579 18.3476 92.8483 15.3197 89.0021 15.3197ZM102.831 12.9465V16.6291H102.953C104.058 14.1331 106.554 12.4555 109.746 12.4555C110.4 12.4555 111.137 12.5374 111.587 12.6601V15.9744C111.137 15.8926 110.319 15.8107 109.541 15.8107C105.818 15.8107 102.994 18.0202 102.994 23.2986V34.4689H99.5982V12.9465H102.831ZM120.332 12.4555C123.401 12.4555 126.06 13.8876 127.206 16.0562H127.329V4.84492H130.766V34.4689H127.492V31.1956H127.37C126.265 33.4869 123.482 34.96 120.332 34.96C114.644 34.96 110.635 30.5409 110.635 23.7077C110.635 16.8746 114.644 12.4555 120.332 12.4555ZM120.905 32.1367C124.833 32.1367 127.574 28.986 127.574 23.7077C127.574 18.4703 124.833 15.3197 120.905 15.3197C116.813 15.3197 114.112 18.4703 114.112 23.7077C114.112 28.986 116.813 32.1367 120.905 32.1367Z" fill="#272727"/>
<defs>
<filter id="filter0_d_2001_1172" x="26.1465" y="15.3635" width="16.2002" height="24.1199" filterUnits="userSpaceOnUse" color-interpolation-filters="sRGB">
<feFlood flood-opacity="0" result="BackgroundImageFix"/>
<feColorMatrix in="SourceAlpha" type="matrix" values="0 0 0 0 0 0 0 0 0 0 0 0 0 0 0 0 0 0 127 0" result="hardAlpha"/>
<feOffset dx="0.816904" dy="-0.816904"/>
<feGaussianBlur stdDeviation="0.816904"/>
<feComposite in2="hardAlpha" operator="out"/>
<feColorMatrix type="matrix" values="0 0 0 0 0 0 0 0 0 0 0 0 0 0 0 0 0 0 0.15 0"/>
<feBlend mode="normal" in2="BackgroundImageFix" result="effect1_dropShadow_2001_1172"/>
<feBlend mode="normal" in="SourceGraphic" in2="effect1_dropShadow_2001_1172" result="shape"/>
</filter>
<linearGradient id="paint0_linear_2001_1172" x1="4.71726" y1="0" x2="4.71726" y2="24.606" gradientUnits="userSpaceOnUse">
<stop stop-color="#272727" stop-opacity="0"/>
<stop offset="1" stop-color="#272727"/>
</linearGradient>
</defs>
</svg>
