<svg width="803" height="466" viewBox="0 0 803 466" fill="none" xmlns="http://www.w3.org/2000/svg">
<path d="M691.989 76.4746C715.551 76.4746 735.97 87.4779 744.767 104.14H745.709V17.9998H772.098V245.611H746.966V220.461H746.023C737.541 238.066 716.179 249.384 691.989 249.384C648.322 249.384 617.535 215.431 617.535 162.929C617.535 110.428 648.322 76.4746 691.989 76.4746ZM696.387 227.692C726.546 227.692 747.594 203.484 747.594 162.929C747.594 122.689 726.546 98.4812 696.387 98.4812C664.972 98.4812 644.238 122.689 644.238 162.929C644.238 203.484 664.972 227.692 696.387 227.692Z" fill="url(#paint0_linear_355_826)"/>
<path d="M544.683 80.2502V108.544H545.626C554.108 89.3672 573.271 76.4776 597.775 76.4776C602.802 76.4776 608.456 77.1064 611.912 78.0495V103.514C608.456 102.886 602.173 102.257 596.204 102.257C567.617 102.257 545.94 119.233 545.94 159.788V245.614H519.865V80.2502H544.683Z" fill="url(#paint1_linear_355_826)"/>
<path d="M473.316 195.313L500.019 198.772C492.166 222.664 471.746 249.701 425.565 249.701C380.641 249.701 349.854 215.434 349.854 163.247C349.854 110.745 380.013 76.4775 425.565 76.4775C471.432 76.4775 504.418 111.059 501.276 169.534H376.557C377.5 203.487 396.663 227.695 425.565 227.695C455.41 227.695 468.604 209.46 473.316 195.313ZM425.565 98.4842C396.349 98.4842 379.385 121.748 376.872 148.785H474.259C472.06 121.748 455.096 98.4842 425.565 98.4842Z" fill="url(#paint2_linear_355_826)"/>
<path d="M353.751 80.2471L298.775 245.611H269.558L228.719 116.086H227.776L186.936 245.611H158.977L104 80.2471H132.902L173.428 213.23H174.37L214.268 80.2471H244.426L284.324 213.23H285.266L325.792 80.2471H353.751Z" fill="url(#paint3_linear_355_826)"/>
<path d="M34.876 227.586H57.2785V423H34.876V227.586ZM194.359 423L172.226 423.27C170.337 420.841 168.717 413.553 168.447 403.027C157.651 420.571 134.979 426.509 117.974 426.509C93.1427 426.509 72.6296 410.314 72.6296 384.403C72.6296 353.094 97.7311 343.107 132.549 339.328C161.43 335.819 167.908 332.041 167.908 322.054C167.908 307.209 158.731 296.682 135.518 296.682C120.134 296.682 104.479 303.43 98.8108 323.134L78.0277 318.275C84.5056 291.284 107.988 277.789 136.328 277.789C175.465 277.789 190.58 296.952 190.58 321.514V390.341C190.58 407.075 191.12 415.712 194.359 423ZM167.908 366.589V347.155C163.319 352.284 146.045 354.443 130.39 356.602C115.005 358.762 95.5718 365.779 95.5718 384.403C95.5718 399.518 106.098 407.885 122.293 407.885C141.187 407.885 167.908 398.438 167.908 366.589ZM278.583 277.789C316.1 277.789 342.551 307.209 342.551 352.014C342.551 397.089 316.1 426.239 278.583 426.239C257.8 426.239 239.446 416.522 231.889 401.407H231.079V423H209.756V227.586H232.159V301.541H232.968C240.526 287.236 258.34 277.789 278.583 277.789ZM274.804 407.615C301.795 407.615 319.339 386.832 319.339 352.014C319.339 317.465 301.795 296.682 274.804 296.682C248.623 296.682 230.809 317.465 230.809 352.014C230.809 386.832 248.623 407.615 274.804 407.615ZM465.778 318.005L444.995 322.324C441.216 305.589 426.101 295.873 409.097 295.873C390.473 295.873 378.327 304.51 378.327 318.815C378.327 332.85 391.823 336.359 407.477 339.058L422.592 341.487C446.884 345.806 469.286 353.094 469.286 382.514C469.286 411.394 443.915 426.239 410.986 426.239C376.438 426.239 353.226 408.155 349.177 381.974L369.96 377.655C373.739 398.438 390.203 408.425 410.986 408.425C431.229 408.425 446.074 399.248 446.074 383.323C446.074 368.208 432.309 363.89 413.685 360.651L398.84 358.222C377.517 354.443 355.115 347.155 355.115 318.815C355.115 294.793 377.247 277.789 409.097 277.789C439.327 277.789 461.999 296.413 465.778 318.005Z" fill="url(#paint4_linear_355_826)"/>
<defs>
<linearGradient id="paint0_linear_355_826" x1="693.215" y1="41.491" x2="683.364" y2="229.855" gradientUnits="userSpaceOnUse">
<stop stop-color="#C3C9D4"/>
<stop offset="1" stop-color="white"/>
</linearGradient>
<linearGradient id="paint1_linear_355_826" x1="564.935" y1="93.6492" x2="556.109" y2="231.149" gradientUnits="userSpaceOnUse">
<stop stop-color="#C3C9D4"/>
<stop offset="1" stop-color="white"/>
</linearGradient>
<linearGradient id="paint2_linear_355_826" x1="424.098" y1="94.064" x2="418.463" y2="235.242" gradientUnits="userSpaceOnUse">
<stop stop-color="#C3C9D4"/>
<stop offset="1" stop-color="white"/>
</linearGradient>
<linearGradient id="paint3_linear_355_826" x1="226.288" y1="97.0356" x2="223.167" y2="231.951" gradientUnits="userSpaceOnUse">
<stop stop-color="#C3C9D4"/>
<stop offset="1" stop-color="white"/>
</linearGradient>
<linearGradient id="paint4_linear_355_826" x1="249.5" y1="226.181" x2="249.5" y2="422.286" gradientUnits="userSpaceOnUse">
<stop stop-color="#C3C9D4"/>
<stop offset="1" stop-color="white"/>
</linearGradient>
</defs>
</svg>
