<svg width="22" height="27" viewBox="0 0 22 27" fill="none" xmlns="http://www.w3.org/2000/svg">
<path d="M18.375 14.3585C18.3883 13.3236 18.6636 12.3089 19.1753 11.4088C19.6869 10.5087 20.4183 9.7524 21.3013 9.21035C20.7403 8.41042 20.0003 7.75211 19.1399 7.2877C18.2796 6.8233 17.3227 6.56559 16.3451 6.53505C14.2599 6.3165 12.2384 7.78094 11.1757 7.78094C10.0926 7.78094 8.45653 6.55675 6.69478 6.59294C5.55523 6.6297 4.44465 6.96057 3.47125 7.55332C2.49785 8.14606 1.69482 8.98046 1.14041 9.97522C-1.26113 14.1269 0.530205 20.2285 2.83072 23.5845C3.98172 25.2278 5.3269 27.0634 7.08707 26.9983C8.80949 26.9269 9.45279 25.9016 11.5319 25.9016C13.5917 25.9016 14.1952 26.9983 15.9911 26.9569C17.8394 26.9269 19.0038 25.3063 20.1145 23.6474C20.9415 22.4765 21.5778 21.1824 22 19.813C20.9262 19.3596 20.0099 18.6005 19.3653 17.6305C18.7206 16.6606 18.3762 15.5226 18.375 14.3585Z" fill="white"/>
<path d="M14.9829 4.32802C15.9906 3.1201 16.4871 1.56752 16.3669 0C14.8273 0.161459 13.4052 0.89617 12.3838 2.05774C11.8844 2.6252 11.502 3.28537 11.2583 4.00051C11.0146 4.71564 10.9144 5.47172 10.9636 6.22553C11.7336 6.23344 12.4955 6.06678 13.1917 5.7381C13.8879 5.40942 14.5003 4.92729 14.9829 4.32802Z" fill="white"/>
</svg>
