<svg width="22" height="27" viewBox="0 0 22 27" fill="none" xmlns="http://www.w3.org/2000/svg">
<path d="M10.2717 12.8944L0.0938721 24.7567C0.094828 24.7588 0.0948279 24.7619 0.0957838 24.764C0.408375 26.0521 1.47902 27 2.75042 27C3.25897 27 3.73599 26.8488 4.14513 26.5843L4.17763 26.5633L15.6336 19.3042L10.2717 12.8944Z" fill="#EA4335"/>
<path d="M20.5679 10.8742L20.5583 10.8669L15.6123 7.71864L10.0402 13.1637L15.6324 19.3027L20.5516 16.186C21.4139 15.6737 21.9999 14.6754 21.9999 13.5249C21.9999 12.3806 21.4225 11.3875 20.5679 10.8742Z" fill="#FBBC04"/>
<path d="M0.0936817 2.24253C0.0325018 2.49027 0 2.75061 0 3.01935V23.9809C0 24.2497 0.0325018 24.51 0.0946376 24.7567L10.6214 13.1978L0.0936817 2.24253Z" fill="#4285F4"/>
<path d="M10.3464 13.5L15.6136 7.71688L4.17104 0.431548C3.75521 0.15756 3.26959 9.72748e-05 2.75052 9.72748e-05C1.47912 9.72748e-05 0.406564 0.95013 0.093973 2.23923C0.093973 2.24028 0.0930176 2.24133 0.0930176 2.24238L10.3464 13.5Z" fill="#34A853"/>
</svg>
